<?xml version="1.0" encoding="iso-8859-1"?>
<!-- Generator: Adobe Illustrator 19.0.0, SVG Export Plug-In . SVG Version: 6.00 Build 0)  -->
<svg version="1.1" id="Capa_1" xmlns="http://www.w3.org/2000/svg" xmlns:xlink="http://www.w3.org/1999/xlink" x="0px" y="0px"
	 viewBox="0 0 480 480" style="enable-background:new 0 0 480 480;" xml:space="preserve">
<g>
	<g>
		<path d="M440,248H232V40c0-4.418-3.582-8-8-8C100.288,32,0,132.288,0,256s100.288,224,224,224s224-100.288,224-224
			C448,251.582,444.418,248,440,248z M224,464c-114.875,0.027-208.022-93.075-208.05-207.95
			C15.924,144.249,104.281,52.425,216,48.152V256c0,4.418,3.582,8,8,8h207.848C427.415,375.62,335.708,463.865,224,464z"/>
	</g>
</g>
<g>
	<g>
		<path d="M256,0c-4.418,0-8,3.582-8,8v216c0,4.418,3.582,8,8,8h216c4.418,0,8-3.582,8-8C479.859,100.347,379.653,0.141,256,0z
			 M264,216V16.152C372.534,20.471,459.529,107.466,463.848,216H264z"/>
	</g>
</g>
<g>
</g>
<g>
</g>
<g>
</g>
<g>
</g>
<g>
</g>
<g>
</g>
<g>
</g>
<g>
</g>
<g>
</g>
<g>
</g>
<g>
</g>
<g>
</g>
<g>
</g>
<g>
</g>
<g>
</g>
</svg>
